# xmcd CD database file
#
# Track frame offsets:
#	150
#	14710
#	31725
#	42727
#	55102
#	68867
#	80767
#	95057
#	109420
#	123745
#	136632
#	147595
#
# Disc length: 2159 seconds
#
# Revision: 2
# Processed by: cddbd v1.4PL0 Copyright (c) Steve Scherf et al.
# Submitted via: NeoAudio 9.9.9
#
DISCID=b6086d0c
DTITLE=Paquita La Del Barrio - Al Cuarto Vaso
DYEAR=1999
DGENRE=
TTITLE0=Al 4o Vaso
TTITLE1=Como Te Ves de Mal
TTITLE2=El Precio De Tu Amor
TTITLE3=Copa Vacia
TTITLE4=Que Poco Hombre Eres
TTITLE5=El Rebelde
TTITLE6=Un Amor A Mi Medida
TTITLE7=Animas Que No Amanesca
TTITLE8=Mis Ojos Me Denuncian
TTITLE9=Paloma Sin Nido
TTITLE10=Amor Barato
TTITLE11=No Te Pases De Vivo
EXTD=YEAR: 1999
EXTT0=
EXTT1=
EXTT2=
EXTT3=
EXTT4=
EXTT5=
EXTT6=
EXTT7=
EXTT8=
EXTT9=
EXTT10=
EXTT11=
PLAYORDER=
